<?xml version="1.0" encoding="UTF-8" standalone="no"?>
<!-- Created with Inkscape (http://www.inkscape.org/) -->

<svg
   version="1.1"
   width="570"
   height="240"
   id="svg4534"
   sodipodi:docname="Ethiopian Airlines Logo.svg"
   inkscape:version="1.1 (c68e22c387, 2021-05-23)"
   xmlns:inkscape="http://www.inkscape.org/namespaces/inkscape"
   xmlns:sodipodi="http://sodipodi.sourceforge.net/DTD/sodipodi-0.dtd"
   xmlns="http://www.w3.org/2000/svg"
   xmlns:svg="http://www.w3.org/2000/svg">
  <sodipodi:namedview
     id="namedview840"
     pagecolor="#ffffff"
     bordercolor="#999999"
     borderopacity="1"
     inkscape:pageshadow="0"
     inkscape:pageopacity="0"
     inkscape:pagecheckerboard="0"
     showgrid="false"
     fit-margin-top="0"
     fit-margin-left="0"
     fit-margin-right="0"
     fit-margin-bottom="0"
     inkscape:zoom="1"
     inkscape:cx="285"
     inkscape:cy="119.5"
     inkscape:window-width="1366"
     inkscape:window-height="705"
     inkscape:window-x="-8"
     inkscape:window-y="-8"
     inkscape:window-maximized="1"
     inkscape:current-layer="svg4534" />
  <defs
     id="defs4536" />
  <path
     d="m 530.83139,92.721371 c -0.69858,-0.007 -1.405,0.0559 -2.2982,0.30639 -10.65663,3.1865 -49.452,16.465619 -95.13511,22.826359 -2.04082,0.26963 -1.50745,1.2317 0.9187,1.37877 30.5291,2.88623 42.0804,3.20488 56.0706,3.06394 13.42006,-0.43508 23.47567,1.4278 34.77548,-10.57059 10.38602,-10.750609 10.5576,-16.953599 5.66853,-17.004869 z m -419.4537,8.579029 -16.545271,4.90231 6.893861,4.9023 v 55.45732 l -6.893861,4.74911 h 23.285941 l -6.74067,-4.74911 V 137.3017 l 6.28108,-4.44271 c 5.37415,-4.28952 10.50319,-5.2087 14.09413,-5.2087 5.93179,0 7.81305,3.67673 7.81305,5.82149 v 37.83966 h 16.54527 l -6.74066,-4.74911 v -33.09055 c 0,-6.57522 -3.79316,-11.64298 -14.70692,-11.64298 -4.16083,0 -10.66864,0.96208 -17.77085,6.28108 l -5.5151,4.28952 z m -109.8422555,1.99156 6.740669,4.90231 v 58.36806 l -6.740669,4.74911 H 55.920378 v -12.56215 l -9.651413,7.81304 H 18.080714 V 137.3017 h 19.456021 l 7.659852,5.82149 v -16.54528 l -7.659852,5.82149 H 18.080714 v -24.20513 h 27.115873 l 8.73223,6.74067 v -11.64298 z m 167.7507355,5.82149 c -2.89849,0 -5.3619,1.67904 -5.3619,3.82992 0,2.14476 2.46341,3.98313 5.3619,3.98313 2.94751,0 5.36189,-1.83837 5.36189,-3.98313 0,-2.15088 -2.41438,-3.82992 -5.36189,-3.82992 z m 146.76275,0 c -2.94138,0 -5.3619,1.67904 -5.3619,3.82992 0,2.14476 2.42052,3.98313 5.3619,3.98313 2.94751,0 5.36189,-1.83837 5.36189,-3.98313 0,-2.15088 -2.41438,-3.82992 -5.36189,-3.82992 z M 77.367963,112.94337 57.91194,126.57791 h 9.651413 v 36.0013 c 0,5.78472 4.798131,10.2642 11.642974,10.2642 6.409762,-0.006 11.373352,-3.57255 12.715352,-6.28108 l -2.91074,-1.99156 c -0.60666,0.66181 -2.59822,3.98312 -8.272642,3.98312 -2.383746,0 -3.370334,-1.07237 -3.370334,-1.07237 v -40.90361 h 14.553716 v -3.82993 H 77.367962 Z m 134.200587,8.88543 c -17.28063,0.006 -29.26063,12.15772 -29.26063,25.27751 0.0441,13.05852 11.98,25.27751 29.26063,25.27751 17.40931,-0.0181 29.10743,-12.21899 29.10743,-25.27751 -0.0441,-13.11979 -11.69812,-25.30202 -29.10743,-25.27751 z m 67.10029,0 c -5.8031,0 -14.90913,0.83339 -19.45602,6.74067 v -5.82149 l -16.54528,4.90231 6.74067,4.74911 v 53.46576 l -6.74067,4.9023 h 22.36677 l -5.82149,-4.9023 v -20.37521 c 5.06163,5.63153 13.65292,6.89387 19.45602,6.89387 14.29022,-0.0181 23.28595,-13.561 23.28595,-25.27751 0,-12.6602 -8.99573,-25.29589 -23.28595,-25.27751 z m 78.74328,0 c -6.23819,0 -14.99493,1.34201 -19.45603,3.82993 v 10.72379 l 11.48978,-8.42584 c 2.24893,-1.69742 4.67557,-2.29795 7.96625,-2.29795 5.97468,0 10.72379,3.2968 10.72379,7.81305 v 8.73223 h -13.63454 c -12.51926,0.0181 -23.28595,7.96011 -23.28595,17.46446 0,7.76402 5.71732,12.71535 12.56216,12.71535 1.6055,0 4.17921,-0.41057 5.82149,-1.07238 l 18.53684,-7.81305 v 7.81305 h 16.54528 l -6.89387,-4.74911 v -33.09055 c 0,-7.50666 -6.90612,-11.64298 -20.3752,-11.64298 z m 68.01947,0 c -3.59706,0 -10.36837,0.32478 -18.38364,6.43428 l -4.9023,4.13632 v -9.65142 l -16.54528,4.90231 6.89386,4.74911 v 34.16293 l -6.89386,4.74911 h 23.43914 l -6.89386,-4.74911 V 137.3017 l 5.82148,-4.9023 c 6.23819,-4.95746 11.12824,-4.74911 14.55372,-4.74911 7.83732,0 9.80461,3.42548 9.80461,5.82149 v 37.83966 h 16.54528 l -6.89362,-4.74911 v -33.09055 c 0,-4.47948 -2.90462,-11.64298 -16.54553,-11.64298 z m -250.78353,0.91918 -16.54527,4.90231 6.74066,4.74911 v 34.16293 l -6.74066,4.74911 h 23.28594 l -6.74067,-4.74911 z m 146.76275,0 -16.54527,4.90231 6.89386,4.74911 v 34.16293 l -6.89386,4.74911 h 23.43914 l -6.89387,-4.74911 z m -109.84226,2.91075 c 12.94821,0 17.46446,11.25692 17.46446,21.44758 0,10.14164 -4.51625,21.29439 -17.46446,21.29439 -12.81953,0 -17.46446,-11.15275 -17.46446,-21.29439 0,-10.18454 4.64493,-21.44145 17.46446,-21.44758 z m 63.27037,0.91918 c 12.29866,-0.0245 15.4729,11.47139 15.4729,20.5284 0,9.00799 -3.17424,20.37521 -15.4729,20.37521 -6.58135,0.0122 -12.47024,-2.51856 -15.6261,-7.81305 v -25.27751 c 3.11297,-5.4293 9.04475,-7.80079 15.6261,-7.81305 z m 82.5732,19.45602 h 10.72379 v 12.71536 l -13.63454,5.82148 c -1.51971,0.66181 -4.47948,1.99156 -5.82149,1.99156 -2.94751,0 -6.89386,-1.69742 -6.89386,-7.81304 0,-7.77016 6.27495,-12.71536 15.6261,-12.71536 z m -138.94971,52.08699 c -6.32397,0 -13.08915,2.12025 -15.1665,6.89387 -0.43533,0.98046 -0.6802,2.10799 -0.76599,3.21713 0.0441,3.28455 -0.89467,8.30941 3.21714,11.48978 l 5.82149,4.59591 5.2087,3.98312 c 0.77824,0.50862 1.83836,1.14592 1.83836,2.75755 v 4.28952 l -4.13632,2.91074 h 13.78773 l -3.98312,-2.91074 v -4.59591 c 0,-2.2857 -0.33091,-3.91572 -2.45115,-5.5151 l -5.82149,-4.59591 c -2.07735,-1.48907 -2.04671,-1.6484 -3.21714,-2.45115 0,0 4.6817,0.20222 6.89387,0.1532 8.78738,0.14094 12.83791,-2.0222 14.09413,-4.59591 0.69245,-1.43393 0.89467,-3.24778 0.76598,-5.97469 -0.12893,-2.83721 -0.37993,-3.26003 -1.07238,-4.59591 -2.03445,-3.71349 -8.16846,-5.0555 -15.01331,-5.0555 z m 32.63097,0 -9.65141,2.91074 3.98312,2.91075 v 2.29795 h 7.96625 l -8.88543,11.48978 c -1.34201,1.81998 -2.45115,3.90959 -2.45115,6.74067 v 10.87699 l -4.13632,2.91074 h 13.78773 l -3.98312,-2.91074 v -10.87699 c 0,-2.37762 0.91918,-3.52353 1.22557,-3.98312 0.47798,-0.6373 0.7476,-0.97434 0.91918,-1.22558 0.34905,-0.45346 0.91919,-0.61279 0.91919,-0.61279 1.47069,-0.38605 13.48133,-2.05897 13.48133,3.82993 v 12.25576 c 0,2.30408 1.17043,3.52353 2.29796,3.52353 0.60666,0 1.17042,-0.0427 2.29795,-0.61279 1.1643,-0.56989 3.52354,-2.29795 3.52354,-2.29795 v 2.91074 h 9.65141 l -3.98312,-2.91074 v -5.0555 h -2.75755 l -5.2087,3.37033 v -11.64297 c -0.17158,-6.74067 -8.54839,-7.2738 -17.77085,-6.12788 l 7.50665,-9.65142 v -2.29795 h -8.73223 z m 45.34632,0 -9.80461,2.91074 3.98312,2.91075 v 2.29795 h 5.82149 v 9.65142 h -16.08569 v 5.66829 l -3.98312,2.91074 h 9.80461 v -6.28108 h 10.2642 v 17.15807 l -3.98312,2.91074 h 13.63453 l -3.98312,-2.91074 v -17.15807 h 10.2642 v 6.28108 h 9.80461 l -3.98312,-2.91074 v -5.66829 h -16.08569 v -9.19183 c 0,-2.29182 -1.02336,-2.75754 -2.75755,-2.75754 h -2.91074 z m 43.50795,0 c -6.28107,0 -13.13204,2.12638 -15.1665,6.89387 -0.47798,0.98046 -0.7905,2.10799 -0.91918,3.21713 0.0858,3.28455 -0.74148,8.30941 3.37033,11.48978 l 5.82149,4.59591 5.2087,3.98312 c 0.77824,0.50862 1.72806,1.15205 1.68516,2.75755 v 4.28952 l -3.98312,2.91074 h 13.78773 l -4.13632,-2.91074 v -4.59591 c 0,-2.2857 -0.28825,-3.91572 -2.45115,-5.5151 l -5.66829,-4.59591 c -2.07735,-1.48907 -2.04671,-1.6484 -3.21714,-2.45115 0,0 4.57753,0.20222 6.74067,0.1532 8.83641,0.14707 12.88081,-2.0222 14.09413,-4.59591 0.26374,-0.53926 0.48386,-1.13979 0.61279,-1.83837 h 2.45115 v 6.28108 h 9.80461 l -3.98312,-2.91074 v -5.66829 h -7.96625 v -1.83837 c -0.17746,-2.84333 -0.37993,-3.26003 -1.07238,-4.59591 -2.03445,-3.71962 -8.1317,-5.0555 -15.01331,-5.0555 z m 49.17625,0 -9.65141,2.91074 3.98312,2.91075 c -5.88889,0 -11.99839,2.40213 -12.25576,7.96624 -0.22061,5.30062 3.64609,7.97238 8.88542,8.11945 l -5.82148,1.99156 c -3.02718,1.18881 -5.2087,2.5063 -5.2087,7.65985 v 5.66829 l -3.98312,2.91074 h 13.78773 l -3.98312,-2.91074 v -5.2087 c 0,-1.64227 -0.30002,-2.94751 2.29795,-3.82993 0,0 9.32664,-3.24777 9.80461,-3.37033 4.54689,0.3309 8.42584,0.58828 8.42584,5.66829 v 6.74067 l -3.98313,2.91074 h 13.78774 l -3.98313,-2.91074 v -6.74067 c 0,-6.52619 -4.792,-7.40248 -8.73223,-7.81305 0.51475,-0.18384 1.97931,-0.75373 2.45116,-0.91918 5.19644,-1.90577 6.45878,-4.09343 6.58747,-7.81305 v -0.1532 h 2.29795 v 6.28108 h 9.65142 l -3.98313,-2.91074 v -5.66829 h -8.27264 c -0.82113,-2.89236 -3.74413,-5.52735 -12.10256,-5.66829 z m 43.50795,0 c -6.28107,0 -12.97885,2.12025 -15.0133,6.89387 -0.42896,0.98046 -0.8334,2.10799 -0.91919,3.21713 0.0441,3.28455 -0.69857,8.30941 3.37034,11.48978 l 12.56215,10.111 -18.23044,1.53198 v 3.98312 l -3.98312,2.91074 h 13.63453 l -3.98312,-2.91074 v -2.14476 l 20.68184,-1.83836 v -2.29796 l -13.63478,-10.87699 c 0,0 4.52875,0.20222 6.74067,0.1532 8.78738,0.14094 12.92346,-2.0222 14.09413,-4.59591 0.69269,-1.43393 1.04811,-3.25391 0.91918,-5.97469 -0.13727,-2.84333 -0.33826,-3.26003 -1.07263,-4.59591 -1.99131,-3.71962 -8.2844,-5.0555 -15.16626,-5.0555 z m -214.16944,2.29796 c 5.67442,-0.0613 10.0436,1.21332 9.95781,6.89386 v 2.14476 c -0.0441,3.07007 -1.25009,5.56412 -5.66829,5.97468 -5.76021,0.4596 -7.59857,0.57603 -12.10256,0.1532 -2.42665,-0.47185 -2.03446,-4.60816 -1.99157,-5.97468 v -1.83837 c 0.0858,-4.79813 3.91572,-7.30443 9.80461,-7.35345 z m 121.48524,0 c 5.66829,-0.0674 9.8904,1.21332 9.80461,6.89386 v 2.14476 c -0.0441,3.07007 -1.25008,5.55799 -5.66829,5.97468 -5.71731,0.45347 -7.4515,0.57603 -11.94936,0.1532 -2.38375,-0.47797 -2.07736,-4.60816 -1.99157,-5.97468 v -1.83837 c 0.049,-4.79813 3.95249,-7.31056 9.80461,-7.35345 z m 92.6842,0 c 5.66854,-0.0613 10.04385,1.21944 9.95806,6.89386 v 2.14476 c 0,3.07007 -1.29323,5.56412 -5.66854,5.97468 -5.76021,0.4596 -7.44562,0.57603 -11.94937,0.1532 -2.38374,-0.47185 -2.03445,-4.60816 -1.99156,-5.97468 v -1.83837 c 0.0441,-4.79813 3.80542,-7.30443 9.65141,-7.35345 z m -46.2655,5.66829 c 7.79467,-0.15933 9.27761,2.38374 9.19182,5.0555 -0.0441,1.7158 -0.0196,3.33357 -3.82992,4.74911 -0.73535,0.27575 -3.65835,1.29911 -6.12788,2.14475 -6.40977,-0.15319 -8.27264,-1.1888 -8.27264,-6.28107 0,-5.02487 5.83374,-5.59476 9.03862,-5.66829 z"
     id="path74"
     style="fill:#c52528;fill-opacity:1;fill-rule:nonzero;stroke:none;stroke-width:4.9023" />
  <path
     d="m 423.95355,114.00472 c 31.22155,-7.94786 109.3888,-49.954481 120.99501,-57.424368 5.71731,-3.560299 12.04129,-1.44618 1.94867,15.00718 -6.88161,10.111004 -11.60621,15.993769 -29.96534,21.557889 -12.60505,4.77362 -59.41594,18.395899 -92.2001,22.354509 -2.42664,0.20222 -3.20488,-0.69245 -0.77824,-1.49521"
     id="path78"
     style="fill:#ffc92d;fill-opacity:1;fill-rule:nonzero;stroke:none;stroke-width:6.12788" />
  <path
     d="M 427.07142,111.80543 C 454.30985,102.24593 513.63999,71.018252 533.862,58.609293 548.41571,49.754505 559.67263,43.209928 564.04794,32.112336 573.44198,6.7551638 566.25398,-3.5641872 557.33178,4.3530348 545.94618,15.432244 492.29045,71.698447 423.65206,111.25392 c -1.04174,0.5944 -1.17043,1.96705 3.41936,0.55151"
     id="path82"
     style="fill:#5e8f4d;fill-opacity:1;fill-rule:nonzero;stroke:none;stroke-width:6.12788" />
</svg>
